<svg width="auto" height="auto" viewBox="0 0 754 674" xmlns="http://www.w3.org/2000/svg">
<path fill-rule="evenodd" clip-rule="evenodd" d="M77.9266 41.4059C109.84 17.9867 147.031 3.98163 185.941 0.552979C194.348 -0.144348 215.153 -0.202454 223.377 0.494873C244.428 2.35449 266.46 7.52643 285.056 15.0229C319.976 29.1442 349.864 52.0405 372.081 81.7359L376.07 87.0823L379.506 82.4333C399.084 55.9922 425.658 34.5487 456.896 19.9625C477.517 10.374 498.076 4.44653 521.643 1.36658C531.462 0.0881348 554.906 -0.434937 565.217 0.436768C606.52 3.92352 644.202 18.2191 676.913 42.8007C684.4 48.4957 702.321 65.4645 708.335 72.5542C732.148 100.971 746.877 133.514 752.093 169.311C753.505 178.667 753.996 201.738 753.075 213.186C748.656 268.393 727.913 315.696 687.039 363.988C672.188 381.479 653.162 400.831 631.805 420.008C612.35 437.5 607.072 442.032 571.354 472.076C515.015 519.438 492.676 539.312 467.084 564.766C434.495 597.25 412.524 623.11 387.178 658.733C377.297 672.68 376.254 673.901 375.456 672.971C374.965 672.448 372.081 668.612 369.135 664.428C340.842 625.203 312.12 592.543 273.947 556.397C251.301 534.954 229.085 515.603 184.713 478.759C141.078 442.497 130.829 433.606 109.594 413.732C101.248 405.887 90.876 395.775 86.5186 391.3C32.082 334.641 5.63084 280.422 0.598373 215.22C-0.199458 204.702 -0.199458 185.699 0.598373 177.156C4.28067 138.744 19.5008 102.773 44.7859 72.5542C51.4754 64.5928 69.7641 47.3915 77.9266 41.4059Z" fill="black"/>
</svg>
