<svg width="100%" height="100%" viewBox="0 0 240 240" fill="none" xmlns="http://www.w3.org/2000/svg">
<circle cx="120" cy="120" r="120" fill="#02BDBD"/>
<path d="M51.488 165V94.008C51.488 88.44 52.832 83.4 55.52 78.888C58.304 74.376 62 70.824 66.608 68.232C71.312 65.544 76.544 64.2 82.304 64.2H119.888V84.36H85.328C82.64 84.36 80.336 85.32 78.416 87.24C76.592 89.16 75.68 91.512 75.68 94.296V108.84H114.992V128.856H75.68V165H51.488ZM149.788 196.536C140.956 196.536 134.284 194.136 129.772 189.336C125.26 184.536 123.004 178.44 123.004 171.048C123.004 166.152 123.964 160.968 125.884 155.496C127.9 150.024 131.116 144.6 135.532 139.224C139.948 133.752 145.948 128.712 153.532 124.104V84.36H133.516V64.2H176.428V166.152C176.428 175.272 174.22 182.616 169.804 188.184C165.388 193.752 158.716 196.536 149.788 196.536ZM148.492 175.8C150.22 175.8 151.564 175.08 152.524 173.64C153.58 172.2 154.108 170.232 154.108 167.736V145.704C150.364 148.776 147.676 151.8 146.044 154.776C144.508 157.656 143.548 160.248 143.164 162.552C142.876 164.856 142.732 166.68 142.732 168.024C142.732 170.52 143.308 172.44 144.46 173.784C145.612 175.128 146.956 175.8 148.492 175.8Z" fill="white"/>
</svg>
