<svg width="201" height="128" viewBox="0 0 201 128" fill="none" xmlns="http://www.w3.org/2000/svg">
<rect width="201" height="128" fill="#E5E5E5"/>
<path opacity="0.25" d="M-532 0V46.29C-502.808 68.49 -468.724 78.46 -435.488 74.29C-392.51 68.92 -352.213 40.98 -309.168 36.79C-264.064 32.43 -219.046 53.67 -175.884 72.05C-133.572 90.05 -59.4302 83.85 -16 72.05C-3 91 61.8652 128.5 83 117C139.588 86.21 159 115 201 52.47V0H-532Z" fill="#201F1F"/>
<path opacity="0.5" d="M-532 0V17.249C-524.059 40.2803 -515.117 62.0352 -502.869 78.6077C-471.277 121.397 -431.212 121.103 -394.819 99.9153C-375.792 88.8414 -358.114 71.4725 -340.046 56.4928C-315.05 35.7635 -288.29 6.30607 -260.13 2.30204C-237.981 -0.807352 -216.822 12.5794 -199.902 36.7345C-180.496 64.4354 -161.835 104.378 -136.601 116.379C-111.899 128.151 -66.0773 69.191 -43 50C-19.9227 30.809 -3.5084 94.3074 22 89.8888C58.4851 83.5064 76.7809 67.883 110.755 85.2956C129.203 94.7438 146.795 92.0272 163.953 77.113C177.654 65.2318 193.273 47.732 201 23.3914V0H-532Z" fill="#201F1F"/>
<path d="M-532 0V5.63C-440.418 59 -340.143 71.32 -241.347 42.57C-215.081 34.93 -189.897 22.45 -163.399 16.11C-127.36 7.48 -46.423 6.84 -14 30C21.9964 55.71 56 52 89 42.57C137 35 148 16.11 201 5.19V0H-532Z" fill="#201F1F"/>
</svg>
