<svg width="100%" height="100%" viewBox="0 0 209 229" fill="none" xmlns="http://www.w3.org/2000/svg">
<circle cx="104.5" cy="114.5" r="104.5" fill="#02BDBD"/>
<path d="M40.488 165V94.008C40.488 88.44 41.832 83.4 44.52 78.888C47.304 74.376 51 70.824 55.608 68.232C60.312 65.544 65.544 64.2 71.304 64.2H108.888V84.36H74.328C71.64 84.36 69.336 85.32 67.416 87.24C65.592 89.16 64.68 91.512 64.68 94.296V108.84H103.992V128.856H64.68V165H40.488ZM138.788 196.536C129.956 196.536 123.284 194.136 118.772 189.336C114.26 184.536 112.004 178.44 112.004 171.048C112.004 166.152 112.964 160.968 114.884 155.496C116.9 150.024 120.116 144.6 124.532 139.224C128.948 133.752 134.948 128.712 142.532 124.104V84.36H122.516V64.2H165.428V166.152C165.428 175.272 163.22 182.616 158.804 188.184C154.388 193.752 147.716 196.536 138.788 196.536ZM137.492 175.8C139.22 175.8 140.564 175.08 141.524 173.64C142.58 172.2 143.108 170.232 143.108 167.736V145.704C139.364 148.776 136.676 151.8 135.044 154.776C133.508 157.656 132.548 160.248 132.164 162.552C131.876 164.856 131.732 166.68 131.732 168.024C131.732 170.52 132.308 172.44 133.46 173.784C134.612 175.128 135.956 175.8 137.492 175.8Z" fill="white"/>
</svg>